<svg width="800" height="600" viewBox="0 0 800 600" fill="none" xmlns="http://www.w3.org/2000/svg">
  <rect width="800" height="600" fill="#0a0a0a"/>
  <!-- Grid pattern -->
  <g opacity="0.06">
    <line x1="0" y1="60" x2="800" y2="60" stroke="white" stroke-width="0.5"/>
    <line x1="0" y1="120" x2="800" y2="120" stroke="white" stroke-width="0.5"/>
    <line x1="0" y1="180" x2="800" y2="180" stroke="white" stroke-width="0.5"/>
    <line x1="0" y1="240" x2="800" y2="240" stroke="white" stroke-width="0.5"/>
    <line x1="0" y1="300" x2="800" y2="300" stroke="white" stroke-width="0.5"/>
    <line x1="0" y1="360" x2="800" y2="360" stroke="white" stroke-width="0.5"/>
    <line x1="0" y1="420" x2="800" y2="420" stroke="white" stroke-width="0.5"/>
    <line x1="0" y1="480" x2="800" y2="480" stroke="white" stroke-width="0.5"/>
    <line x1="0" y1="540" x2="800" y2="540" stroke="white" stroke-width="0.5"/>
    <line x1="80" y1="0" x2="80" y2="600" stroke="white" stroke-width="0.5"/>
    <line x1="160" y1="0" x2="160" y2="600" stroke="white" stroke-width="0.5"/>
    <line x1="240" y1="0" x2="240" y2="600" stroke="white" stroke-width="0.5"/>
    <line x1="320" y1="0" x2="320" y2="600" stroke="white" stroke-width="0.5"/>
    <line x1="400" y1="0" x2="400" y2="600" stroke="white" stroke-width="0.5"/>
    <line x1="480" y1="0" x2="480" y2="600" stroke="white" stroke-width="0.5"/>
    <line x1="560" y1="0" x2="560" y2="600" stroke="white" stroke-width="0.5"/>
    <line x1="640" y1="0" x2="640" y2="600" stroke="white" stroke-width="0.5"/>
    <line x1="720" y1="0" x2="720" y2="600" stroke="white" stroke-width="0.5"/>
  </g>
  <!-- Central node cluster -->
  <circle cx="400" cy="280" r="40" fill="#EA580C" opacity="0.15"/>
  <circle cx="400" cy="280" r="24" fill="#EA580C" opacity="0.3"/>
  <circle cx="400" cy="280" r="8" fill="#EA580C"/>
  <!-- Satellite nodes -->
  <circle cx="280" cy="200" r="6" fill="#7C3AED" opacity="0.6"/>
  <circle cx="520" cy="200" r="6" fill="#7C3AED" opacity="0.6"/>
  <circle cx="300" cy="370" r="6" fill="#06B6D4" opacity="0.6"/>
  <circle cx="500" cy="370" r="6" fill="#06B6D4" opacity="0.6"/>
  <circle cx="200" cy="300" r="4" fill="white" opacity="0.3"/>
  <circle cx="600" cy="260" r="4" fill="white" opacity="0.3"/>
  <!-- Connection lines -->
  <line x1="400" y1="280" x2="280" y2="200" stroke="#EA580C" stroke-width="1" opacity="0.2"/>
  <line x1="400" y1="280" x2="520" y2="200" stroke="#EA580C" stroke-width="1" opacity="0.2"/>
  <line x1="400" y1="280" x2="300" y2="370" stroke="#EA580C" stroke-width="1" opacity="0.2"/>
  <line x1="400" y1="280" x2="500" y2="370" stroke="#EA580C" stroke-width="1" opacity="0.2"/>
  <line x1="400" y1="280" x2="200" y2="300" stroke="white" stroke-width="0.5" opacity="0.1"/>
  <line x1="400" y1="280" x2="600" y2="260" stroke="white" stroke-width="0.5" opacity="0.1"/>
  <!-- Text -->
  <text x="400" y="460" font-family="system-ui, sans-serif" font-size="32" font-weight="800" fill="white" text-anchor="middle" opacity="0.9">DURO</text>
  <text x="400" y="490" font-family="system-ui, sans-serif" font-size="12" fill="white" text-anchor="middle" opacity="0.3" letter-spacing="4">AGENT GOVERNANCE</text>
</svg>