<svg width="800" height="600" viewBox="0 0 800 600" fill="none" xmlns="http://www.w3.org/2000/svg">
  <rect width="800" height="600" fill="#0a0a0a"/>
  <!-- Ankara-inspired pattern -->
  <g opacity="0.12">
    <path d="M200 150 L250 200 L200 250 L150 200 Z" stroke="#D46A2E" stroke-width="1.5" fill="none"/>
    <path d="M300 150 L350 200 L300 250 L250 200 Z" stroke="#D46A2E" stroke-width="1.5" fill="none"/>
    <path d="M400 150 L450 200 L400 250 L350 200 Z" stroke="#D46A2E" stroke-width="1.5" fill="none"/>
    <path d="M500 150 L550 200 L500 250 L450 200 Z" stroke="#D46A2E" stroke-width="1.5" fill="none"/>
    <path d="M600 150 L650 200 L600 250 L550 200 Z" stroke="#D46A2E" stroke-width="1.5" fill="none"/>
    <path d="M250 200 L300 250 L250 300 L200 250 Z" stroke="#06B6D4" stroke-width="1" fill="none"/>
    <path d="M350 200 L400 250 L350 300 L300 250 Z" stroke="#06B6D4" stroke-width="1" fill="none"/>
    <path d="M450 200 L500 250 L450 300 L400 250 Z" stroke="#06B6D4" stroke-width="1" fill="none"/>
    <path d="M550 200 L600 250 L550 300 L500 250 Z" stroke="#06B6D4" stroke-width="1" fill="none"/>
  </g>
  <!-- Central accent -->
  <circle cx="400" cy="300" r="3" fill="#D46A2E" opacity="0.6"/>
  <!-- Text -->
  <text x="400" y="420" font-family="serif" font-size="36" font-weight="800" fill="white" text-anchor="middle" opacity="0.9">UNDATONE</text>
  <text x="400" y="452" font-family="system-ui, sans-serif" font-size="11" fill="#D46A2E" text-anchor="middle" opacity="0.5" letter-spacing="4">CULTURE INTELLIGENCE</text>
</svg>